<svg width="36" height="36" viewBox="0 0 36 36" fill="none" xmlns="http://www.w3.org/2000/svg">
<path d="M4.18086 3.42019C4.32259 3.37829 4.47119 3.36472 4.61816 3.38026C4.76513 3.39581 4.9076 3.44016 5.03743 3.51078C5.16726 3.58141 5.2819 3.67692 5.3748 3.79187C5.4677 3.90681 5.53704 4.03894 5.57886 4.18069L6.40386 6.97519H28.3864C31.1464 6.97519 33.2539 9.55069 32.4589 12.2402L29.9764 20.6402C29.4484 22.4297 27.7699 23.6252 25.9039 23.6252H12.1699C10.3039 23.6252 8.62686 22.4297 8.09736 20.6402L3.42186 4.81819C3.33763 4.53236 3.37024 4.22478 3.51254 3.96297C3.65483 3.70115 3.89519 3.50498 4.18086 3.42019ZM9.37536 29.2502C9.37536 28.3551 9.73094 27.4966 10.3639 26.8637C10.9968 26.2308 11.8553 25.8752 12.7504 25.8752C13.6455 25.8752 14.5039 26.2308 15.1368 26.8637C15.7698 27.4966 16.1254 28.3551 16.1254 29.2502C16.1254 30.1453 15.7698 31.0037 15.1368 31.6367C14.5039 32.2696 13.6455 32.6252 12.7504 32.6252C11.8553 32.6252 10.9968 32.2696 10.3639 31.6367C9.73094 31.0037 9.37536 30.1453 9.37536 29.2502ZM21.3754 29.2502C21.3754 28.807 21.4627 28.3681 21.6323 27.9586C21.8019 27.5492 22.0505 27.1771 22.3639 26.8637C22.6773 26.5503 23.0493 26.3017 23.4588 26.1321C23.8683 25.9625 24.3071 25.8752 24.7504 25.8752C25.1936 25.8752 25.6324 25.9625 26.0419 26.1321C26.4514 26.3017 26.8234 26.5503 27.1368 26.8637C27.4502 27.1771 27.6988 27.5492 27.8685 27.9586C28.0381 28.3681 28.1254 28.807 28.1254 29.2502C28.1254 30.1453 27.7698 31.0037 27.1368 31.6367C26.5039 32.2696 25.6455 32.6252 24.7504 32.6252C23.8553 32.6252 22.9968 32.2696 22.3639 31.6367C21.7309 31.0037 21.3754 30.1453 21.3754 29.2502Z" fill="#F3F3F3"/>
</svg>
